<svg width="96" height="24" viewBox="0 0 96 24" fill="none" xmlns="http://www.w3.org/2000/svg">
<g clip-path="url(#clip0_537_5134)">
<path d="M28.9648 17.0342H35.7142V14.9429H31.3637V7.06592H28.9648V17.0342Z" fill="#2F234F"/>
<path d="M39.7078 15.6398C38.7455 15.6398 38.244 14.7754 38.244 13.4789C38.244 12.1823 38.7455 11.304 39.7078 11.304C40.67 11.304 41.185 12.1823 41.185 13.4789C41.185 14.7754 40.67 15.6398 39.7078 15.6398ZM39.7213 17.257C41.9576 17.257 43.4213 15.6259 43.4213 13.4789C43.4213 11.3319 41.9576 9.70068 39.7213 9.70068C37.4986 9.70068 36.0078 11.3319 36.0078 13.4789C36.0078 15.6259 37.4986 17.257 39.7213 17.257Z" fill="#2F234F"/>
<path d="M47.299 19.502C48.3291 19.502 49.2371 19.265 49.847 18.7074C50.4027 18.1915 50.7686 17.4108 50.7686 16.3373V9.89626H48.6543V10.663H48.6272C48.2206 10.0636 47.5972 9.68713 46.6756 9.68713C44.9544 9.68713 43.7617 11.1649 43.7617 13.2562C43.7617 15.445 45.2119 16.644 46.7705 16.644C47.6108 16.644 48.1393 16.2955 48.5459 15.8214H48.6001V16.5325C48.6001 17.3968 48.2071 17.8987 47.2719 17.8987C46.5401 17.8987 46.1741 17.5781 46.0522 17.2017H43.9108C44.1276 18.6934 45.3881 19.502 47.299 19.502ZM47.2855 14.9571C46.4588 14.9571 45.9166 14.26 45.9166 13.1865C45.9166 12.099 46.4588 11.402 47.2855 11.402C48.2071 11.402 48.695 12.2106 48.695 13.1725C48.695 14.1763 48.2477 14.9571 47.2855 14.9571Z" fill="#2F234F"/>
<path d="M55.1179 15.6398C54.1557 15.6398 53.6542 14.7754 53.6542 13.4789C53.6542 12.1823 54.1557 11.304 55.1179 11.304C56.0802 11.304 56.595 12.1823 56.595 13.4789C56.595 14.7754 56.0802 15.6398 55.1179 15.6398ZM55.1315 17.257C57.3675 17.257 58.8312 15.6259 58.8312 13.4789C58.8312 11.3319 57.3675 9.70068 55.1315 9.70068C52.9088 9.70068 51.418 11.3319 51.418 13.4789C51.418 15.6259 52.9088 17.257 55.1315 17.257Z" fill="#2F234F"/>
<path d="M59.4688 17.0342H61.6779V9.89606H59.4688V17.0342ZM59.4688 8.90621H61.6779V7.06592H59.4688V8.90621Z" fill="#2F234F"/>
<path d="M62.6445 19.3902H64.8537V16.2952H64.8808C65.3145 16.8947 65.9514 17.2572 66.8459 17.2572C68.662 17.2572 69.8682 15.7794 69.8682 13.4651C69.8682 11.3181 68.7434 9.68689 66.9002 9.68689C65.9514 9.68689 65.2738 10.1191 64.7994 10.7604H64.7588V9.89601H62.6445V19.3902ZM66.2767 15.5005C65.328 15.5005 64.7859 14.7059 64.7859 13.5487C64.7859 12.3916 65.2738 11.5132 66.2361 11.5132C67.1848 11.5132 67.632 12.3219 67.632 13.5487C67.632 14.7616 67.117 15.5005 66.2767 15.5005Z" fill="#2F234F"/>
<path d="M73.4645 17.2572C75.2806 17.2572 76.6224 16.4486 76.6224 14.8871C76.6224 13.0608 75.1858 12.7401 73.966 12.531C73.085 12.3637 72.299 12.294 72.299 11.7921C72.299 11.3459 72.7191 11.1368 73.2612 11.1368C73.8711 11.1368 74.2913 11.332 74.3726 11.9733H76.4055C76.2971 10.5652 75.24 9.68689 73.2748 9.68689C71.6349 9.68689 70.2796 10.4676 70.2796 11.9733C70.2796 13.6463 71.5671 13.9809 72.7733 14.19C73.6949 14.3573 74.5352 14.427 74.5352 15.0684C74.5352 15.5284 74.1151 15.7794 73.451 15.7794C72.7191 15.7794 72.2583 15.4308 72.177 14.7198H70.0898C70.1576 16.2952 71.4316 17.2572 73.4645 17.2572Z" fill="#2F234F"/>
<path d="M79.6153 17.2435C80.5776 17.2435 81.1874 16.8531 81.6889 16.156H81.7296V17.0343H83.8438V9.89624H81.6347V13.8835C81.6347 14.734 81.1739 15.3195 80.4149 15.3195C79.7102 15.3195 79.3714 14.8873 79.3714 14.1066V9.89624H77.1758V14.5806C77.1758 16.17 78.0161 17.2435 79.6153 17.2435Z" fill="#2F234F"/>
<path d="M84.8164 17.0344H87.0255V13.0331C87.0255 12.1827 87.4321 11.5832 88.1233 11.5832C88.7874 11.5832 89.0991 12.0293 89.0991 12.7961V17.0344H91.3083V13.0331C91.3083 12.1827 91.7013 11.5832 92.4061 11.5832C93.0702 11.5832 93.3819 12.0293 93.3819 12.7961V17.0344H95.591V12.3918C95.591 10.7885 94.8049 9.68713 93.2328 9.68713C92.3383 9.68713 91.5929 10.0775 91.0508 10.9419H91.0237C90.6713 10.1751 89.9801 9.68713 89.072 9.68713C88.0691 9.68713 87.405 10.1751 86.9713 10.914H86.9307V9.89626H84.8164V17.0344Z" fill="#2F234F"/>
<path fill-rule="evenodd" clip-rule="evenodd" d="M11.3605 23.4239C17.5981 23.4239 22.6546 18.2223 22.6546 11.8058C22.6546 5.38942 17.5981 0.187866 11.3605 0.187866C5.12295 0.187866 0.0664062 5.38942 0.0664062 11.8058C0.0664062 18.2223 5.12295 23.4239 11.3605 23.4239ZM13.1037 9.16426C14.0665 8.17388 14.0665 6.56822 13.1037 5.57784C12.141 4.58748 10.5801 4.58748 9.61731 5.57784C8.6546 6.56822 8.6546 8.17388 9.61731 9.16426L11.3605 10.9574L13.1037 9.16426ZM13.9285 13.5991C14.8913 14.5895 16.4522 14.5895 17.4149 13.5991C18.3776 12.6087 18.3776 11.003 17.4149 10.0127C16.4522 9.02235 14.8913 9.02235 13.9285 10.0127L12.1853 11.8059L13.9285 13.5991ZM13.1037 18.0339C14.0665 17.0435 14.0665 15.4379 13.1037 14.4475L11.3605 12.6543L9.61731 14.4475C8.6546 15.4379 8.6546 17.0435 9.61731 18.0339C10.5801 19.0243 12.141 19.0243 13.1037 18.0339ZM5.3061 13.5991C4.34337 12.6087 4.34337 11.003 5.3061 10.0127C6.26889 9.02235 7.82979 9.02235 8.79256 10.0127L10.5357 11.8059L8.79256 13.5991C7.82979 14.5895 6.26889 14.5895 5.3061 13.5991Z" fill="#7F57F1"/>
</g>
<defs>
<clipPath id="clip0_537_5134">
<rect width="96" height="23.8169" fill="white"/>
</clipPath>
</defs>
</svg>
