<svg width="97" height="25" viewBox="0 0 97 25" fill="none" xmlns="http://www.w3.org/2000/svg">
<g clip-path="url(#clip0_537_5145)">
<path d="M28.1602 17.0003H35.0308V14.8748H30.6021V6.86865H28.1602V17.0003Z" fill="#2F234F"/>
<path d="M39.0945 15.5841C38.115 15.5841 37.6045 14.7055 37.6045 13.3877C37.6045 12.0699 38.115 11.1772 39.0945 11.1772C40.0741 11.1772 40.5984 12.0699 40.5984 13.3877C40.5984 14.7055 40.0741 15.5841 39.0945 15.5841ZM39.1083 17.2278C41.3847 17.2278 42.8748 15.5699 42.8748 13.3877C42.8748 11.2055 41.3847 9.54761 39.1083 9.54761C36.8457 9.54761 35.3281 11.2055 35.3281 13.3877C35.3281 15.5699 36.8457 17.2278 39.1083 17.2278Z" fill="#2F234F"/>
<path d="M46.8313 19.5092C47.8799 19.5092 48.8042 19.2683 49.4251 18.7015C49.9907 18.1772 50.3632 17.3837 50.3632 16.2926V9.746H48.211V10.5254H48.1834C47.7695 9.91604 47.1349 9.53345 46.1967 9.53345C44.4446 9.53345 43.2305 11.0355 43.2305 13.161C43.2305 15.3857 44.7067 16.6044 46.2933 16.6044C47.1487 16.6044 47.6867 16.2501 48.1006 15.7683H48.1558V16.491C48.1558 17.3695 47.7557 17.8797 46.8037 17.8797C46.0587 17.8797 45.6862 17.5538 45.5621 17.1712H43.3822C43.603 18.6874 44.886 19.5092 46.8313 19.5092ZM46.8175 14.8898C45.976 14.8898 45.4241 14.1813 45.4241 13.0902C45.4241 11.9849 45.976 11.2764 46.8175 11.2764C47.7557 11.2764 48.2524 12.0982 48.2524 13.076C48.2524 14.0962 47.7971 14.8898 46.8175 14.8898Z" fill="#2F234F"/>
<path d="M54.7781 15.5836C53.7986 15.5836 53.2881 14.7051 53.2881 13.3872C53.2881 12.0694 53.7986 11.1767 54.7781 11.1767C55.7577 11.1767 56.2819 12.0694 56.2819 13.3872C56.2819 14.7051 55.7577 15.5836 54.7781 15.5836ZM54.7919 17.2273C57.0683 17.2273 58.5585 15.5694 58.5585 13.3872C58.5585 11.205 57.0683 9.54712 54.7919 9.54712C52.5293 9.54712 51.0117 11.205 51.0117 13.3872C51.0117 15.5694 52.5293 17.2273 54.7919 17.2273Z" fill="#2F234F"/>
<path d="M59.2188 17.0003H61.4676V9.74519H59.2188V17.0003ZM59.2188 8.73911H61.4676V6.86865H59.2188V8.73911Z" fill="#2F234F"/>
<path d="M62.457 19.3959H64.7058V16.2501H64.7334C65.1749 16.8594 65.8234 17.2278 66.7339 17.2278C68.5826 17.2278 69.8105 15.7258 69.8105 13.3736C69.8105 11.1914 68.6654 9.53345 66.7891 9.53345C65.8234 9.53345 65.1335 9.97272 64.6507 10.6246H64.6093V9.746H62.457V19.3959ZM66.1545 15.4424C65.1887 15.4424 64.6369 14.6347 64.6369 13.4586C64.6369 12.2825 65.1335 11.3897 66.1131 11.3897C67.0788 11.3897 67.5341 12.2116 67.5341 13.4586C67.5341 14.6914 67.0098 15.4424 66.1545 15.4424Z" fill="#2F234F"/>
<path d="M73.4783 17.2276C75.327 17.2276 76.6928 16.4057 76.6928 14.8187C76.6928 12.9624 75.2304 12.6365 73.9887 12.4239C73.092 12.2539 72.2918 12.183 72.2918 11.6729C72.2918 11.2195 72.7195 11.0069 73.2713 11.0069C73.8922 11.0069 74.3199 11.2053 74.4026 11.8571H76.4721C76.3617 10.4259 75.2856 9.5332 73.2851 9.5332C71.6158 9.5332 70.2361 10.3267 70.2361 11.8571C70.2361 13.5575 71.5468 13.8976 72.7747 14.1102C73.7128 14.2802 74.5682 14.3511 74.5682 15.0029C74.5682 15.4705 74.1405 15.7256 73.4645 15.7256C72.7195 15.7256 72.2504 15.3713 72.1676 14.6486H70.043C70.112 16.2499 71.4088 17.2276 73.4783 17.2276Z" fill="#2F234F"/>
<path d="M79.7138 17.2127C80.6934 17.2127 81.3142 16.8159 81.8247 16.1074H81.8661V17.0001H84.0183V9.745H81.7695V13.7977C81.7695 14.662 81.3004 15.2572 80.5278 15.2572C79.8104 15.2572 79.4655 14.8179 79.4655 14.0244V9.745H77.2305V14.5062C77.2305 16.1216 78.0858 17.2127 79.7138 17.2127Z" fill="#2F234F"/>
<path d="M85.0078 17.0011H87.2566V12.9343C87.2566 12.0699 87.6705 11.4606 88.3741 11.4606C89.0502 11.4606 89.3675 11.914 89.3675 12.6934V17.0011H91.6163V12.9343C91.6163 12.0699 92.0164 11.4606 92.7338 11.4606C93.4098 11.4606 93.7271 11.914 93.7271 12.6934V17.0011H95.976V12.2825C95.976 10.6529 95.1758 9.53345 93.5754 9.53345C92.6648 9.53345 91.906 9.93021 91.3542 10.8088H91.3266C90.9679 10.0294 90.2642 9.53345 89.3399 9.53345C88.319 9.53345 87.6429 10.0294 87.2014 10.7804H87.1601V9.746H85.0078V17.0011Z" fill="#2F234F"/>
<path fill-rule="evenodd" clip-rule="evenodd" d="M5.16654 2.29772C4.34412 2.88836 3.60044 3.58668 2.95485 4.37278C5.59302 4.12122 8.9447 4.53199 12.836 6.53035C16.9913 8.66426 20.3374 8.73641 22.6662 8.27506C22.4548 7.61797 22.1888 6.98646 21.8737 6.38611C19.208 6.67489 15.7905 6.29265 11.8077 4.24737C9.27858 2.94855 7.04919 2.41353 5.16654 2.29772ZM20.3165 4.1096C18.2113 1.6938 15.1521 0.173462 11.747 0.173462C10.747 0.173462 9.7768 0.304599 8.85187 0.551026C10.1046 0.902094 11.4354 1.4157 12.836 2.135C15.752 3.63247 18.2695 4.11463 20.3165 4.1096ZM23.164 10.5815C20.3507 11.1521 16.4658 11.0349 11.8077 8.64271C7.45285 6.40631 3.98677 6.43447 1.64913 6.96804C1.52847 6.99555 1.41065 7.02448 1.29567 7.05459C0.989614 7.73824 0.745311 8.45714 0.57002 9.20367C0.75724 9.15231 0.950702 9.10348 1.15031 9.0579C3.98628 8.41062 7.99327 8.43872 12.836 10.9257C17.1909 13.1621 20.6569 13.1339 22.9946 12.6004C23.0747 12.5821 23.1536 12.5632 23.2312 12.5438C23.2397 12.3576 23.244 12.1703 23.244 11.9819C23.244 11.5081 23.2169 11.0408 23.164 10.5815ZM22.8559 15.0358C20.0698 15.536 16.2981 15.344 11.8077 13.0381C7.45285 10.8017 3.98677 10.8298 1.64913 11.3634C1.13024 11.4818 0.663455 11.626 0.251684 11.7783C0.250562 11.846 0.25 11.9139 0.25 11.9819C0.25 18.5035 5.39738 23.7904 11.747 23.7904C17.0684 23.7904 21.5455 20.0771 22.8559 15.0358Z" fill="#7F57F1"/>
</g>
<defs>
<clipPath id="clip0_537_5145">
<rect width="96" height="24.2073" fill="white" transform="translate(0.195312)"/>
</clipPath>
</defs>
</svg>
