<svg width="97" height="25" viewBox="0 0 97 25" fill="none" xmlns="http://www.w3.org/2000/svg">
<g clip-path="url(#clip0_537_5167)">
<path d="M29.1641 17.0944H35.9938V14.9689H31.5915V6.96277H29.1641V17.0944Z" fill="#3C2B1F"/>
<path d="M40.0448 15.6774C39.0711 15.6774 38.5636 14.7988 38.5636 13.481C38.5636 12.1632 39.0711 11.2704 40.0448 11.2704C41.0185 11.2704 41.5396 12.1632 41.5396 13.481C41.5396 14.7988 41.0185 15.6774 40.0448 15.6774ZM40.0585 17.3211C42.3214 17.3211 43.8025 15.6632 43.8025 13.481C43.8025 11.2988 42.3214 9.64087 40.0585 9.64087C37.8094 9.64087 36.3008 11.2988 36.3008 13.481C36.3008 15.6632 37.8094 17.3211 40.0585 17.3211Z" fill="#3C2B1F"/>
<path d="M47.7161 19.6021C48.7584 19.6021 49.6773 19.3612 50.2944 18.7944C50.8567 18.2701 51.227 17.4766 51.227 16.3855V9.8389H49.0876V10.6183H49.0601C48.6487 10.0089 48.0179 9.62634 47.0853 9.62634C45.3436 9.62634 44.1367 11.1284 44.1367 13.2539C44.1367 15.4786 45.6041 16.6972 47.1813 16.6972C48.0316 16.6972 48.5664 16.343 48.9779 15.8612H49.0327V16.5839C49.0327 17.4624 48.635 17.9726 47.6887 17.9726C46.9481 17.9726 46.5779 17.6467 46.4544 17.2641H44.2876C44.507 18.7803 45.7824 19.6021 47.7161 19.6021ZM47.7024 14.9827C46.8659 14.9827 46.3173 14.2742 46.3173 13.1831C46.3173 12.0778 46.8659 11.3693 47.7024 11.3693C48.635 11.3693 49.1287 12.1911 49.1287 13.1689C49.1287 14.1891 48.6762 14.9827 47.7024 14.9827Z" fill="#3C2B1F"/>
<path d="M55.619 15.6772C54.6453 15.6772 54.1379 14.7987 54.1379 13.4809C54.1379 12.163 54.6453 11.2703 55.619 11.2703C56.5927 11.2703 57.1139 12.163 57.1139 13.4809C57.1139 14.7987 56.5927 15.6772 55.619 15.6772ZM55.6327 17.321C57.8956 17.321 59.3764 15.6631 59.3764 13.4809C59.3764 11.2987 57.8956 9.64075 55.6327 9.64075C53.3836 9.64075 51.875 11.2987 51.875 13.4809C51.875 15.6631 53.3836 17.321 55.6327 17.321Z" fill="#3C2B1F"/>
<path d="M60.0234 17.0944H62.2589V9.83931H60.0234V17.0944ZM60.0234 8.83323H62.2589V6.96277H60.0234V8.83323Z" fill="#3C2B1F"/>
<path d="M63.2227 19.489H65.4581V16.3432H65.4855C65.9244 16.9526 66.5689 17.321 67.4741 17.321C69.3118 17.321 70.5324 15.8189 70.5324 13.4667C70.5324 11.2845 69.3941 9.62659 67.5289 9.62659C66.5689 9.62659 65.8832 10.0659 65.4032 10.7177H65.3621V9.83914H63.2227V19.489ZM66.8981 15.5355C65.9381 15.5355 65.3895 14.7278 65.3895 13.5517C65.3895 12.3756 65.8832 11.4829 66.8569 11.4829C67.8169 11.4829 68.2695 12.3047 68.2695 13.5517C68.2695 14.7845 67.7484 15.5355 66.8981 15.5355Z" fill="#3C2B1F"/>
<path d="M74.1922 17.321C76.0299 17.321 77.3876 16.4991 77.3876 14.9121C77.3876 13.0558 75.9339 12.7299 74.6996 12.5173C73.8082 12.3473 73.0128 12.2764 73.0128 11.7663C73.0128 11.3128 73.4379 11.1003 73.9865 11.1003C74.6036 11.1003 75.0288 11.2987 75.1111 11.9505H77.1682C77.0585 10.5193 75.9888 9.62659 74.0002 9.62659C72.3408 9.62659 70.9693 10.4201 70.9693 11.9505C70.9693 13.6509 72.2722 13.991 73.4928 14.2035C74.4253 14.3736 75.2756 14.4444 75.2756 15.0963C75.2756 15.5639 74.8505 15.8189 74.1785 15.8189C73.4379 15.8189 72.9716 15.4647 72.8893 14.742H70.7773C70.8459 16.3432 72.1351 17.321 74.1922 17.321Z" fill="#3C2B1F"/>
<path d="M80.41 17.3063C81.3837 17.3063 82.0008 16.9095 82.5083 16.201H82.5494V17.0937H84.6888V9.83862H82.4534V13.8913C82.4534 14.7557 81.9871 15.3508 81.2191 15.3508C80.506 15.3508 80.1631 14.9115 80.1631 14.118V9.83862H77.9414V14.5998C77.9414 16.2152 78.7917 17.3063 80.41 17.3063Z" fill="#3C2B1F"/>
<path d="M85.6797 17.0943H87.9151V13.0274C87.9151 12.163 88.3265 11.5537 89.026 11.5537C89.698 11.5537 90.0134 12.0072 90.0134 12.7865V17.0943H92.2488V13.0274C92.2488 12.163 92.6465 11.5537 93.3597 11.5537C94.0317 11.5537 94.3471 12.0072 94.3471 12.7865V17.0943H96.5825V12.3756C96.5825 10.746 95.7871 9.62659 94.1963 9.62659C93.2911 9.62659 92.5368 10.0234 91.9883 10.9019H91.9608C91.6043 10.1225 90.9048 9.62659 89.986 9.62659C88.9711 9.62659 88.2991 10.1225 87.8603 10.8736H87.8191V9.83914H85.6797V17.0943Z" fill="#3C2B1F"/>
<path d="M15.5105 1.16702L13.263 0.5448L11.3691 7.84808L9.6592 1.25463L7.41171 1.87685L9.25914 9.00058L4.65763 4.24615L3.01238 5.94609L8.05965 11.1612L1.77408 9.42096L1.17188 11.7431L8.03965 13.6445C7.96103 13.2941 7.91943 12.929 7.91943 12.5538C7.91943 9.89832 10.0029 7.74564 12.5729 7.74564C15.143 7.74564 17.2264 9.89832 17.2264 12.5538C17.2264 12.9265 17.1853 13.2894 17.1077 13.6378L23.3492 15.3658L23.9514 13.0436L17.0563 11.1347L23.3423 9.39434L22.74 7.0722L15.8453 8.98104L20.4467 4.22663L18.8015 2.52669L13.8242 7.66942L15.5105 1.16702Z" fill="#F97316"/>
<path d="M17.1147 13.6648C16.922 14.5065 16.5152 15.2627 15.957 15.8685L20.4787 20.5406L22.124 18.8406L17.1147 13.6648Z" fill="#F97316"/>
<path d="M15.9192 15.9178C15.3543 16.514 14.6404 16.9589 13.8398 17.1881L15.4852 23.5328L17.7326 22.9106L15.9192 15.9178Z" fill="#F97316"/>
<path d="M13.7297 17.2113C13.3583 17.31 12.9689 17.3624 12.5677 17.3624C12.1379 17.3624 11.7217 17.3022 11.3265 17.1895L9.67969 23.5399L11.9271 24.1621L13.7297 17.2113Z" fill="#F97316"/>
<path d="M11.2554 17.1658C10.4671 16.9251 9.7659 16.4746 9.21253 15.8767L4.67969 20.5602L6.32494 22.2602L11.2554 17.1658Z" fill="#F97316"/>
<path d="M9.17961 15.8356C8.63573 15.234 8.23955 14.4879 8.05098 13.6592L1.78906 15.3928L2.39126 17.715L9.17961 15.8356Z" fill="#F97316"/>
</g>
<defs>
<clipPath id="clip0_537_5167">
<rect width="96" height="24.2073" fill="white" transform="translate(0.996094)"/>
</clipPath>
</defs>
</svg>
