<svg width="407" height="76" viewBox="0 0 407 76" fill="none" xmlns="http://www.w3.org/2000/svg">
<g clip-path="url(#clip0_93_1716)">
<path fill-rule="evenodd" clip-rule="evenodd" d="M13.45 17.6393C12.8213 16.1283 12.472 14.4656 12.472 12.7217C12.472 5.69743 18.1304 0 25.0946 0C30.9465 0 35.874 4.02394 37.298 9.47224C38.9209 8.26993 40.9198 7.56046 43.0854 7.56046C48.4805 7.56046 52.8653 11.9743 52.8653 17.4172C52.8653 18.8091 52.5805 20.1305 52.0593 21.3329C55.8477 22.2535 58.6634 25.6926 58.6634 29.7923C58.6634 34.5907 54.7945 38.4901 50.0335 38.4901C49.2435 38.4901 48.4805 38.3818 47.7497 38.1814V52.6254C47.7497 52.6254 39.297 54.5859 32.048 54.6563C24.9657 54.7267 16.3464 52.6254 16.3464 52.6254V34.3308C15.3039 34.7803 14.1594 35.0294 12.9557 35.0294C8.1893 35.0294 4.32568 31.13 4.32568 26.3316C4.32568 21.5332 8.19467 17.6339 12.9557 17.6339C13.1169 17.6339 13.2835 17.6339 13.4447 17.6501L13.45 17.6393Z" fill="#FFC8D0"/>
<path fill-rule="evenodd" clip-rule="evenodd" d="M31.5 66.9665C32.4243 63.9499 35.5302 61.7349 39.2111 61.7349C41.2477 61.7349 43.1016 62.4118 44.5148 63.5221C48.2549 66.5495 52.989 67.259 56.8043 67.2102C53.7843 68.1093 48.846 68.8079 42.4783 66.9882C42.4783 66.9882 52.8439 71.9328 62.9946 66.8149C61.533 67.7356 57.2556 69.8802 47.2231 71.597C47.2231 71.597 53.6123 71.7162 58.8785 70.4326C49.4747 77.0183 39.2595 75.9351 39.2595 75.9351H39.2057C35.5195 75.9351 32.4135 73.7146 31.4946 70.7034C30.5704 73.72 27.4644 75.9351 23.7835 75.9351H23.7298C23.7298 75.9351 13.5146 77.0183 4.1108 70.4326C9.37692 71.7162 15.7661 71.597 15.7661 71.597C5.73363 69.8857 1.45087 67.7356 -0.00537109 66.8149C10.1453 71.9328 20.511 66.9882 20.511 66.9882C14.1487 68.8079 9.20497 68.1093 6.18501 67.2102C10.0003 67.259 14.7344 66.5495 18.4744 63.5221C19.8877 62.4118 21.7416 61.7349 23.7782 61.7349C27.4644 61.7349 30.5704 63.9553 31.4893 66.9665H31.5Z" fill="#181818"/>
</g>
<path d="M98.488 56H81.632V54.264L83.648 53.312C85.496 52.416 85.944 51.744 85.944 49.896V23.744C85.944 21.896 85.496 21.168 83.648 20.328L81.632 19.376V17.64H111.76L112.32 27.552H110.528L108.792 24.92C106.44 21.448 105.712 20.944 103.304 20.944H93.56V35.784H100.672C102.464 35.784 103.192 35.28 104.032 33.488L105.04 31.416H106.72V44.184H105.04L104.088 41.832C103.192 39.648 102.464 39.088 100.672 39.088H93.56V49.896C93.56 51.52 94.176 52.248 96.304 53.256L98.488 54.264V56ZM127.176 56.56C120.848 56.56 117.432 52.752 117.432 45.528V37.24C117.432 34.72 116.928 33.88 115.36 33.376L113.456 32.76V31.136L123.088 27.272L124.656 28.224V44.184C124.656 49.112 126.392 51.24 130.368 51.24C132.16 51.24 134.344 50.176 135.8 48.664V37.24C135.8 34.72 135.296 33.88 133.728 33.376L131.824 32.76V31.136L141.456 27.272L142.968 28.224V48.384C142.968 50.288 143.416 50.792 145.432 51.184L147.336 51.464L147.672 53.256L138.992 56.56H137.648L135.968 52.024C133.784 54.88 130.424 56.56 127.176 56.56ZM159.963 56.56C156.323 56.56 152.347 55.552 149.547 53.648L150.331 46.536H152.123L153.579 49.112C155.371 52.08 157.387 53.48 160.355 53.48C163.099 53.48 164.947 52.136 164.947 49.728C164.947 47.824 163.715 46.368 157.947 44.016C152.515 41.832 150.107 39.088 150.107 35.392C150.107 30.464 154.251 27.272 160.523 27.272C163.939 27.272 167.691 28.056 170.211 29.232L169.539 35.84H167.691C166.963 34.496 166.179 33.488 165.283 32.424C164.107 31.08 162.427 30.352 160.635 30.352C157.947 30.352 156.379 31.528 156.379 33.32C156.379 35.336 157.779 36.456 163.547 38.976C169.427 41.552 171.443 44.128 171.443 47.656C171.443 52.976 166.683 56.56 159.963 56.56ZM181.17 23.24C178.426 23.24 176.578 21.112 176.578 18.592C176.578 15.792 178.65 13.944 181.17 13.944C183.746 13.944 185.818 15.792 185.818 18.592C185.818 21.28 183.914 23.24 181.17 23.24ZM189.514 56H173.946V54.32L176.074 53.368C177.698 52.584 178.146 51.912 178.146 49.952V37.24C178.146 34.608 177.642 33.824 176.074 33.376L174.114 32.76V31.136L183.802 27.272L185.314 28.168V49.952C185.314 51.912 185.762 52.584 187.386 53.368L189.514 54.32V56ZM206.713 56.56C198.089 56.56 192.209 50.792 192.209 41.888C192.209 33.544 198.537 27.272 206.713 27.272C215.393 27.272 221.217 33.096 221.217 42C221.217 50.344 214.889 56.56 206.713 56.56ZM206.713 53.48C210.913 53.48 213.433 49.224 213.433 42C213.433 34.72 210.913 30.352 206.713 30.352C202.569 30.352 199.993 34.664 199.993 41.888C199.993 49.112 202.569 53.48 206.713 53.48ZM239.222 56H223.878V54.32L226.006 53.368C227.686 52.584 228.078 51.856 228.078 49.952V37.352C228.078 34.776 227.63 33.936 226.006 33.432L224.046 32.816V31.192L233.118 27.272L234.63 28.168V33.488C237.542 29.624 241.294 27.272 244.878 27.272C250.702 27.272 254.286 31.472 254.286 38.472V49.952C254.286 51.856 254.678 52.584 256.358 53.368L258.43 54.32V56H243.142V54.32L245.27 53.368C246.726 52.64 247.118 52.024 247.118 49.952V39.928C247.118 35.392 245.102 33.04 241.462 33.04C239.166 33.04 236.87 34.328 235.246 36.288V49.952C235.246 52.024 235.582 52.64 237.094 53.368L239.222 54.32V56ZM290.093 56H273.237V54.264L275.253 53.312C277.101 52.416 277.549 51.744 277.549 49.896V23.744C277.549 21.896 277.101 21.168 275.253 20.328L273.237 19.376V17.64H303.365L303.925 27.552H302.133L300.397 24.92C298.045 21.448 297.317 20.944 294.909 20.944H285.165V35.784H292.277C294.069 35.784 294.797 35.28 295.637 33.488L296.645 31.416H298.325V44.184H296.645L295.693 41.832C294.797 39.648 294.069 39.088 292.277 39.088H285.165V49.896C285.165 51.52 285.781 52.248 287.909 53.256L290.093 54.264V56ZM321.727 56H306.159V54.32L308.287 53.368C309.911 52.584 310.359 51.912 310.359 49.952V23.912C310.359 21.392 309.855 20.608 308.287 20.104L306.327 19.488V17.808L316.015 14L317.527 14.952V49.952C317.527 51.912 317.975 52.584 319.599 53.368L321.727 54.32V56ZM332.878 56.56C327.558 56.56 324.086 53.48 324.086 48.776C324.086 45.136 326.55 42.336 330.694 40.88C333.55 39.816 336.966 39.312 340.55 39.088V37.688C340.55 32.704 338.982 30.52 335.846 30.52C334.39 30.52 333.046 30.8 332.094 31.584C331.254 32.2 330.582 33.264 329.518 36.344H326.942L325.038 31.08C329.126 28.336 332.654 27.272 336.798 27.272C344.302 27.272 347.718 30.352 347.718 37.912V48.384C347.718 50.288 348.166 50.792 350.182 51.184L352.086 51.464L352.422 53.256L343.742 56.56H342.398L340.83 52.304C338.926 54.88 335.846 56.56 332.878 56.56ZM335.734 51.632C337.414 51.632 339.206 50.848 340.55 49.28V41.776C338.702 41.888 337.022 42.168 335.734 42.56C332.99 43.344 331.478 45.024 331.478 47.488C331.478 49.952 333.214 51.632 335.734 51.632ZM369.936 56H353.192V54.32L355.32 53.368C356.944 52.584 357.392 51.856 357.392 49.952V37.352C357.392 34.776 356.888 33.88 355.32 33.432L353.36 32.816V31.192L362.432 27.272L363.944 28.168V33.432C365.68 29.848 368.76 27.272 371.616 27.272C373.408 27.272 375.256 28 376.712 29.232L375.928 36.344H374.136C372.4 33.712 371.336 32.928 369.488 32.928C367.92 32.928 366.24 34.16 364.56 36.288V49.952C364.56 51.632 365.176 52.36 367.64 53.368L369.936 54.32V56ZM391.684 56.56C383.172 56.56 377.908 51.352 377.908 42.056C377.908 33.656 383.732 27.272 391.628 27.272C399.076 27.272 404.004 31.92 404.116 39.984V41.272H385.692V41.832C385.692 48.496 389.164 52.08 394.932 52.08C397.564 52.08 399.58 51.296 401.932 49.784L403.556 51.856C400.42 54.936 396.5 56.56 391.684 56.56ZM385.804 38.304L396.892 38.08C396.836 33.32 394.876 30.352 391.74 30.352C388.38 30.352 386.42 32.984 385.804 38.304Z" fill="#181818"/>
<defs>
<clipPath id="clip0_93_1716">
<rect width="63" height="76" fill="white"/>
</clipPath>
</defs>
</svg>
