<svg width="152" height="38" viewBox="0 0 152 38" fill="none" xmlns="http://www.w3.org/2000/svg">
<g clip-path="url(#clip0_115_1713)">
<path d="M45.8613 27.1781H56.5478V23.8415H49.6595V11.2737H45.8613V27.1781Z" fill="white"/>
<path d="M62.87 24.9534C61.3464 24.9534 60.5524 23.5743 60.5524 21.5056C60.5524 19.437 61.3464 18.0356 62.87 18.0356C64.3936 18.0356 65.209 19.437 65.209 21.5056C65.209 23.5743 64.3936 24.9534 62.87 24.9534ZM62.8914 27.5337C66.4321 27.5337 68.7497 24.9312 68.7497 21.5056C68.7497 18.0801 66.4321 15.4775 62.8914 15.4775C59.3722 15.4775 57.0117 18.0801 57.0117 21.5056C57.0117 24.9312 59.3722 27.5337 62.8914 27.5337Z" fill="white"/>
<path d="M74.8932 31.1155C76.5241 31.1155 77.9618 30.7374 78.9275 29.8476C79.8073 29.0246 80.3867 27.7789 80.3867 26.0662V15.7895H77.0391V17.0129H76.9962C76.3524 16.0564 75.3653 15.4558 73.9061 15.4558C71.1809 15.4558 69.2925 17.8137 69.2925 21.1503C69.2925 24.6425 71.5886 26.5555 74.0563 26.5555C75.3868 26.5555 76.2237 25.9994 76.8674 25.2431H76.9533V26.3776C76.9533 27.7567 76.331 28.5575 74.8503 28.5575C73.6915 28.5575 73.1122 28.0459 72.919 27.4453H69.5285C69.8719 29.8254 71.8675 31.1155 74.8932 31.1155ZM74.8718 23.864C73.5628 23.864 72.7044 22.7518 72.7044 21.039C72.7044 19.304 73.5628 18.1918 74.8718 18.1918C76.331 18.1918 77.1035 19.482 77.1035 21.0168C77.1035 22.6183 76.3954 23.864 74.8718 23.864Z" fill="white"/>
<path d="M87.2684 24.9534C85.7448 24.9534 84.9509 23.5743 84.9509 21.5056C84.9509 19.437 85.7448 18.0356 87.2684 18.0356C88.792 18.0356 89.6071 19.437 89.6071 21.5056C89.6071 23.5743 88.792 24.9534 87.2684 24.9534ZM87.2899 27.5337C90.8302 27.5337 93.1478 24.9312 93.1478 21.5056C93.1478 18.0801 90.8302 15.4775 87.2899 15.4775C83.7706 15.4775 81.4102 18.0801 81.4102 21.5056C81.4102 24.9312 83.7706 27.5337 87.2899 27.5337Z" fill="white"/>
<path d="M94.1567 27.1781H97.6545V15.7892H94.1567V27.1781ZM94.1567 14.2099H97.6545V11.2737H94.1567V14.2099Z" fill="white"/>
<path d="M99.1875 30.9371H102.685V25.9989H102.728C103.415 26.9554 104.423 27.5338 105.84 27.5338C108.715 27.5338 110.625 25.1759 110.625 21.4834C110.625 18.0579 108.844 15.4553 105.926 15.4553C104.423 15.4553 103.351 16.1449 102.599 17.1681H102.535V15.789H99.1875V30.9371ZM104.938 24.731C103.436 24.731 102.578 23.4631 102.578 21.6169C102.578 19.7706 103.351 18.3693 104.874 18.3693C106.376 18.3693 107.084 19.6594 107.084 21.6169C107.084 23.5521 106.269 24.731 104.938 24.731Z" fill="white"/>
<path d="M116.316 27.5338C119.191 27.5338 121.316 26.2436 121.316 23.7523C121.316 20.8383 119.041 20.3267 117.11 19.9931C115.715 19.7262 114.47 19.6149 114.47 18.8142C114.47 18.1023 115.136 17.7687 115.994 17.7687C116.96 17.7687 117.625 18.0801 117.754 19.1033H120.972C120.801 16.8567 119.127 15.4553 116.015 15.4553C113.419 15.4553 111.273 16.701 111.273 19.1033C111.273 21.7726 113.312 22.3064 115.222 22.6401C116.681 22.907 118.011 23.0182 118.011 24.0415C118.011 24.7755 117.346 25.1759 116.294 25.1759C115.136 25.1759 114.406 24.6198 114.277 23.4854H110.973C111.08 25.9989 113.097 27.5338 116.316 27.5338Z" fill="white"/>
<path d="M126.058 27.5118C127.581 27.5118 128.547 26.889 129.341 25.7768H129.405V27.1782H132.753V15.7893H129.255V22.1511C129.255 23.5079 128.526 24.4422 127.324 24.4422C126.208 24.4422 125.672 23.7526 125.672 22.507V15.7893H122.195V23.2633C122.195 25.7991 123.526 27.5118 126.058 27.5118Z" fill="white"/>
<path d="M134.295 27.1783H137.793V20.7943C137.793 19.4375 138.436 18.481 139.531 18.481C140.582 18.481 141.076 19.1928 141.076 20.4162V27.1783H144.574V20.7943C144.574 19.4375 145.196 18.481 146.312 18.481C147.363 18.481 147.857 19.1928 147.857 20.4162V27.1783H151.355V19.7711C151.355 17.2131 150.11 15.4558 147.621 15.4558C146.205 15.4558 145.024 16.0786 144.166 17.4578H144.123C143.565 16.2343 142.471 15.4558 141.033 15.4558C139.445 15.4558 138.394 16.2343 137.707 17.4133H137.643V15.7895H134.295V27.1783Z" fill="white"/>
<path fill-rule="evenodd" clip-rule="evenodd" d="M17.9883 37.3729C27.8645 37.3729 35.8706 29.0738 35.8706 18.8364C35.8706 8.59891 27.8645 0.299805 17.9883 0.299805C8.11215 0.299805 0.105957 8.59891 0.105957 18.8364C0.105957 29.0738 8.11215 37.3729 17.9883 37.3729ZM20.7484 14.6217C22.2727 13.0415 22.2727 10.4797 20.7484 8.89954C19.224 7.3194 16.7526 7.3194 15.2282 8.89954C13.7039 10.4797 13.7039 13.0415 15.2282 14.6217L17.9883 17.4827L20.7484 14.6217ZM22.0543 21.6975C23.5787 23.2776 26.0501 23.2776 27.5745 21.6975C29.0988 20.1173 29.0988 17.5555 27.5745 15.9753C26.0501 14.3953 23.5787 14.3953 22.0543 15.9753L19.2942 18.8364L22.0543 21.6975ZM20.7484 28.7733C22.2727 27.1931 22.2727 24.6313 20.7484 23.0511L17.9883 20.1901L15.2282 23.0511C13.7039 24.6313 13.7039 27.1931 15.2282 28.7733C16.7526 30.3534 19.224 30.3534 20.7484 28.7733ZM8.40214 21.6975C6.87782 20.1173 6.87782 17.5555 8.40214 15.9753C9.92655 14.3953 12.398 14.3953 13.9224 15.9753L16.6824 18.8364L13.9224 21.6975C12.398 23.2776 9.92655 23.2776 8.40214 21.6975Z" fill="white"/>
</g>
<defs>
<clipPath id="clip0_115_1713">
<rect width="152" height="38" fill="white"/>
</clipPath>
</defs>
</svg>
