<svg width="153" height="38" viewBox="0 0 153 38" fill="none" xmlns="http://www.w3.org/2000/svg">
<g clip-path="url(#clip0_115_1724)">
<path d="M46.6987 26.0797H57.4555V22.7431H50.5219V10.1753H46.6987V26.0797Z" fill="white"/>
<path d="M63.807 23.8548C62.2734 23.8548 61.4742 22.4757 61.4742 20.407C61.4742 18.3383 62.2734 16.937 63.807 16.937C65.3406 16.937 66.1614 18.3383 66.1614 20.407C66.1614 22.4757 65.3406 23.8548 63.807 23.8548ZM63.8286 26.4351C67.3926 26.4351 69.7254 23.8326 69.7254 20.407C69.7254 16.9814 67.3926 14.3789 63.8286 14.3789C60.2862 14.3789 57.9102 16.9814 57.9102 20.407C57.9102 23.8326 60.2862 26.4351 63.8286 26.4351Z" fill="white"/>
<path d="M75.8852 30.0169C77.5268 30.0169 78.974 29.6387 79.946 28.749C80.8316 27.926 81.4148 26.6803 81.4148 24.9675V14.6908H78.0452V15.9143H78.002C77.354 14.9578 76.3604 14.3572 74.8916 14.3572C72.1484 14.3572 70.2476 16.715 70.2476 20.0516C70.2476 23.5439 72.5588 25.4569 75.0428 25.4569C76.382 25.4569 77.2244 24.9008 77.8724 24.1445H77.9588V25.2789C77.9588 26.6581 77.3324 27.4588 75.842 27.4588C74.6756 27.4588 74.0924 26.9472 73.898 26.3466H70.4852C70.8308 28.7267 72.8396 30.0169 75.8852 30.0169ZM75.8636 22.7654C74.546 22.7654 73.682 21.6532 73.682 19.9404C73.682 18.2054 74.546 17.0932 75.8636 17.0932C77.3324 17.0932 78.11 18.3833 78.11 19.9182C78.11 21.5197 77.3972 22.7654 75.8636 22.7654Z" fill="white"/>
<path d="M88.366 23.8548C86.8324 23.8548 86.0332 22.4757 86.0332 20.407C86.0332 18.3383 86.8324 16.937 88.366 16.937C89.8996 16.937 90.7204 18.3383 90.7204 20.407C90.7204 22.4757 89.8996 23.8548 88.366 23.8548ZM88.3876 26.4351C91.9516 26.4351 94.2844 23.8326 94.2844 20.407C94.2844 16.9814 91.9516 14.3789 88.3876 14.3789C84.8452 14.3789 82.4692 16.9814 82.4692 20.407C82.4692 23.8326 84.8452 26.4351 88.3876 26.4351Z" fill="white"/>
<path d="M95.3301 26.0797H98.8509V14.6908H95.3301V26.0797ZM95.3301 13.1115H98.8509V10.1753H95.3301V13.1115Z" fill="white"/>
<path d="M100.363 29.8389H103.884V24.9008H103.927C104.618 25.8573 105.634 26.4356 107.059 26.4356C109.954 26.4356 111.876 24.0778 111.876 20.3853C111.876 16.9597 110.083 14.3572 107.146 14.3572C105.634 14.3572 104.554 15.0467 103.798 16.07H103.733V14.6908H100.363V29.8389ZM106.152 23.6329C104.64 23.6329 103.776 22.365 103.776 20.5187C103.776 18.6725 104.554 17.2711 106.087 17.2711C107.599 17.2711 108.312 18.5613 108.312 20.5187C108.312 22.454 107.491 23.6329 106.152 23.6329Z" fill="white"/>
<path d="M117.599 26.4351C120.493 26.4351 122.631 25.145 122.631 22.6537C122.631 19.7397 120.342 19.2281 118.398 18.8944C116.994 18.6275 115.741 18.5163 115.741 17.7155C115.741 17.0037 116.411 16.6701 117.275 16.6701C118.247 16.6701 118.916 16.9815 119.046 18.0047H122.286C122.113 15.7581 120.428 14.3567 117.296 14.3567C114.683 14.3567 112.523 15.6023 112.523 18.0047C112.523 20.674 114.575 21.2078 116.497 21.5415C117.966 21.8084 119.305 21.9196 119.305 22.9428C119.305 23.6769 118.635 24.0773 117.577 24.0773C116.411 24.0773 115.676 23.5212 115.547 22.3867H112.22C112.328 24.9003 114.359 26.4351 117.599 26.4351Z" fill="white"/>
<path d="M127.417 26.4135C128.95 26.4135 129.922 25.7906 130.722 24.6784H130.786V26.0798H134.156V14.6909H130.635V21.0527C130.635 22.4096 129.901 23.3438 128.691 23.3438C127.568 23.3438 127.028 22.6542 127.028 21.4086V14.6909H123.529V22.1649C123.529 24.7007 124.868 26.4135 127.417 26.4135Z" fill="white"/>
<path d="M135.689 26.0792H139.21V19.6952C139.21 18.3383 139.858 17.3819 140.96 17.3819C142.018 17.3819 142.515 18.0937 142.515 19.3171V26.0792H146.036V19.6952C146.036 18.3383 146.662 17.3819 147.785 17.3819C148.844 17.3819 149.341 18.0937 149.341 19.3171V26.0792H152.861V18.672C152.861 16.114 151.609 14.3567 149.103 14.3567C147.677 14.3567 146.489 14.9795 145.625 16.3586H145.582C145.021 15.1352 143.919 14.3567 142.472 14.3567C140.873 14.3567 139.815 15.1352 139.124 16.3142H139.059V14.6903H135.689V26.0792Z" fill="white"/>
<path fill-rule="evenodd" clip-rule="evenodd" d="M18.6118 37.2013C28.553 37.2013 36.6118 28.9022 36.6118 18.6647C36.6118 8.42729 28.553 0.128174 18.6118 0.128174C8.67068 0.128174 0.611816 8.42729 0.611816 18.6647C0.611816 28.9022 8.67068 37.2013 18.6118 37.2013ZM24.2272 8.76329C24.5005 7.76344 23.5583 7.1722 22.6978 7.80352L10.6856 16.6161C9.75241 17.3007 9.8992 18.6647 10.9061 18.6647H14.0693V18.6395H20.2341L15.2109 20.4647L12.9965 28.5662C12.7231 29.5661 13.6653 30.1573 14.5258 29.526L26.538 20.7135C27.4713 20.0288 27.3244 18.6647 26.3175 18.6647H21.5207L24.2272 8.76329Z" fill="white"/>
</g>
<defs>
<clipPath id="clip0_115_1724">
<rect width="153" height="38" fill="white"/>
</clipPath>
</defs>
</svg>
