<svg width="150" height="38" viewBox="0 0 150 38" fill="none" xmlns="http://www.w3.org/2000/svg">
<g clip-path="url(#clip0_115_1746)">
<path d="M44.0107 26.8343H54.6822V23.4977H47.8036V10.9299H44.0107V26.8343Z" fill="white"/>
<path d="M61.0141 24.6099C59.4926 24.6099 58.6998 23.2308 58.6998 21.1621C58.6998 19.0934 59.4926 17.6921 61.0141 17.6921C62.5355 17.6921 63.3498 19.0934 63.3498 21.1621C63.3498 23.2308 62.5355 24.6099 61.0141 24.6099ZM61.0355 27.1902C64.5712 27.1902 66.8855 24.5877 66.8855 21.1621C66.8855 17.7366 64.5712 15.134 61.0355 15.134C57.5212 15.134 55.1641 17.7366 55.1641 21.1621C55.1641 24.5877 57.5212 27.1902 61.0355 27.1902Z" fill="white"/>
<path d="M73.002 30.7708C74.6306 30.7708 76.0663 30.3926 77.0306 29.5029C77.9092 28.6799 78.4878 27.4342 78.4878 25.7214V15.4447H75.1449V16.6682H75.102C74.4592 15.7117 73.4735 15.1111 72.0163 15.1111C69.2949 15.1111 67.4092 17.4689 67.4092 20.8055C67.4092 24.2978 69.702 26.2108 72.1663 26.2108C73.4949 26.2108 74.3306 25.6547 74.9735 24.8984H75.0592V26.0328C75.0592 27.412 74.4378 28.2127 72.9592 28.2127C71.802 28.2127 71.2235 27.7011 71.0306 27.1005H67.6449C67.9878 29.4806 69.9806 30.7708 73.002 30.7708ZM72.9806 23.5193C71.6735 23.5193 70.8163 22.4071 70.8163 20.6943C70.8163 18.9593 71.6735 17.8471 72.9806 17.8471C74.4378 17.8471 75.2092 19.1372 75.2092 20.6721C75.2092 22.2736 74.502 23.5193 72.9806 23.5193Z" fill="white"/>
<path d="M85.3471 24.6097C83.8256 24.6097 83.0328 23.2306 83.0328 21.1619C83.0328 19.0932 83.8256 17.6918 85.3471 17.6918C86.8685 17.6918 87.6828 19.0932 87.6828 21.1619C87.6828 23.2306 86.8685 24.6097 85.3471 24.6097ZM85.3685 27.19C88.9042 27.19 91.218 24.5874 91.218 21.1619C91.218 17.7363 88.9042 15.1338 85.3685 15.1338C81.8542 15.1338 79.4971 17.7363 79.4971 21.1619C79.4971 24.5874 81.8542 27.19 85.3685 27.19Z" fill="white"/>
<path d="M92.2334 26.8343H95.7262V15.4454H92.2334V26.8343ZM92.2334 13.8661H95.7262V10.9299H92.2334V13.8661Z" fill="white"/>
<path d="M97.231 30.5933H100.724V25.6552H100.767C101.452 26.6117 102.46 27.19 103.874 27.19C106.745 27.19 108.652 24.8322 108.652 21.1397C108.652 17.7141 106.874 15.1116 103.96 15.1116C102.46 15.1116 101.388 15.8011 100.638 16.8244H100.574V15.4452H97.231V30.5933ZM102.974 24.3873C101.474 24.3873 100.617 23.1194 100.617 21.2731C100.617 19.4269 101.388 18.0255 102.91 18.0255C104.41 18.0255 105.117 19.3157 105.117 21.2731C105.117 23.2084 104.302 24.3873 102.974 24.3873Z" fill="white"/>
<path d="M114.369 27.19C117.24 27.19 119.362 25.8999 119.362 23.4085C119.362 20.4946 117.09 19.983 115.162 19.6493C113.769 19.3824 112.526 19.2712 112.526 18.4704C112.526 17.7586 113.19 17.4249 114.047 17.4249C115.012 17.4249 115.676 17.7364 115.805 18.7596H119.019C118.847 16.5129 117.176 15.1116 114.069 15.1116C111.476 15.1116 109.333 16.3572 109.333 18.7596C109.333 21.4288 111.369 21.9627 113.276 22.2964C114.733 22.5633 116.062 22.6745 116.062 23.6977C116.062 24.4318 115.397 24.8322 114.347 24.8322C113.19 24.8322 112.462 24.2761 112.333 23.1416H109.033C109.14 25.6552 111.155 27.19 114.369 27.19Z" fill="white"/>
<path d="M124.087 27.1671C125.608 27.1671 126.572 26.5443 127.365 25.4321H127.429V26.8335H130.772V15.4446H127.279V21.8063C127.279 23.1632 126.551 24.0975 125.351 24.0975C124.237 24.0975 123.701 23.4079 123.701 22.1622V15.4446H120.229V22.9185C120.229 25.4543 121.558 27.1671 124.087 27.1671Z" fill="white"/>
<path d="M132.317 26.8341H135.81V20.4501C135.81 19.0932 136.453 18.1367 137.545 18.1367C138.595 18.1367 139.088 18.8485 139.088 20.072V26.8341H142.581V20.4501C142.581 19.0932 143.203 18.1367 144.317 18.1367C145.367 18.1367 145.86 18.8485 145.86 20.072V26.8341H149.353V19.4269C149.353 16.8688 148.11 15.1116 145.624 15.1116C144.21 15.1116 143.031 15.7344 142.174 17.1135H142.131C141.574 15.8901 140.481 15.1116 139.045 15.1116C137.46 15.1116 136.41 15.8901 135.724 17.069H135.66V15.4452H132.317V26.8341Z" fill="white"/>
<path d="M22.6799 1.83197L19.1683 0.855225L16.209 12.3197L13.5373 1.96949L10.0256 2.94624L12.9122 14.1289L5.72238 6.6655L3.15167 9.33401L11.038 17.5205L1.21682 14.7888L0.275879 18.434L11.0068 21.4188C10.8839 20.8687 10.8189 20.2955 10.8189 19.7066C10.8189 15.5381 14.0743 12.1589 18.09 12.1589C22.1057 12.1589 25.3611 15.5381 25.3611 19.7066C25.3611 20.2917 25.2969 20.8614 25.1755 21.4082L34.9279 24.1207L35.8688 20.4755L25.0953 17.4789L34.9171 14.747L33.9762 11.1018L23.203 14.0982L30.3929 6.63486L27.8221 3.96634L20.0452 12.0392L22.6799 1.83197Z" fill="white"/>
<path d="M25.1863 21.4507C24.8852 22.772 24.2496 23.959 23.3774 24.91L30.4426 32.2441L33.0133 29.5755L25.1863 21.4507Z" fill="white"/>
<path d="M23.3149 24.9873C22.4323 25.9231 21.3168 26.6215 20.0659 26.9814L22.6368 36.9411L26.1484 35.9643L23.3149 24.9873Z" fill="white"/>
<path d="M19.8984 27.0179C19.3181 27.1728 18.7098 27.2551 18.0829 27.2551C17.4113 27.2551 16.7609 27.1606 16.1435 26.9836L13.5703 36.9524L17.0819 37.9291L19.8984 27.0179Z" fill="white"/>
<path d="M16.0271 26.9464C14.7953 26.5686 13.6997 25.8614 12.835 24.9229L5.75244 32.2749L8.32315 34.9435L16.0271 26.9464Z" fill="white"/>
<path d="M12.788 24.8584C11.9381 23.9139 11.3191 22.7428 11.0245 21.4419L1.24023 24.1633L2.18117 27.8086L12.788 24.8584Z" fill="white"/>
</g>
<defs>
<clipPath id="clip0_115_1746">
<rect width="150" height="38" fill="white"/>
</clipPath>
</defs>
</svg>
