<svg width="151" height="38" viewBox="0 0 151 38" fill="none" xmlns="http://www.w3.org/2000/svg">
<g clip-path="url(#clip0_115_1735)">
<path d="M43.9863 26.6866H54.7932V23.35H47.8273V10.7822H43.9863V26.6866Z" fill="white"/>
<path d="M61.1874 24.4635C59.6467 24.4635 58.8438 23.0843 58.8438 21.0156C58.8438 18.947 59.6467 17.5456 61.1874 17.5456C62.7282 17.5456 63.5528 18.947 63.5528 21.0156C63.5528 23.0843 62.7282 24.4635 61.1874 24.4635ZM61.2091 27.0437C64.7897 27.0437 67.1334 24.4412 67.1334 21.0156C67.1334 17.5901 64.7897 14.9875 61.2091 14.9875C57.6502 14.9875 55.2632 17.5901 55.2632 21.0156C55.2632 24.4412 57.6502 27.0437 61.2091 27.0437Z" fill="white"/>
<path d="M73.3514 30.625C75.0006 30.625 76.4545 30.2469 77.4311 29.3571C78.3208 28.5341 78.9067 27.2885 78.9067 25.5757V15.299H75.5214V16.5224H75.478C74.827 15.5659 73.8288 14.9653 72.3531 14.9653C69.5972 14.9653 67.6875 17.3232 67.6875 20.6598C67.6875 24.1521 70.0095 26.065 72.505 26.065C73.8505 26.065 74.6968 25.5089 75.3478 24.7526H75.4346V25.8871C75.4346 27.2662 74.8053 28.067 73.308 28.067C72.1361 28.067 71.5502 27.5554 71.3549 26.9548H67.9262C68.2734 29.3349 70.2916 30.625 73.3514 30.625ZM73.3297 23.3735C72.0059 23.3735 71.1379 22.2613 71.1379 20.5486C71.1379 18.8135 72.0059 17.7013 73.3297 17.7013C74.8053 17.7013 75.5865 18.9915 75.5865 20.5263C75.5865 22.1279 74.8704 23.3735 73.3297 23.3735Z" fill="white"/>
<path d="M85.8535 24.4627C84.3127 24.4627 83.5098 23.0836 83.5098 21.0149C83.5098 18.9462 84.3127 17.5449 85.8535 17.5449C87.3942 17.5449 88.2188 18.9462 88.2188 21.0149C88.2188 23.0836 87.3942 24.4627 85.8535 24.4627ZM85.8752 27.043C89.4558 27.043 91.7997 24.4405 91.7997 21.0149C91.7997 17.5894 89.4558 14.9868 85.8752 14.9868C82.3163 14.9868 79.9292 17.5894 79.9292 21.0149C79.9292 24.4405 82.3163 27.043 85.8752 27.043Z" fill="white"/>
<path d="M92.8359 26.6866H96.3731V15.2977H92.8359V26.6866ZM92.8359 13.7184H96.3731V10.7822H92.8359V13.7184Z" fill="white"/>
<path d="M97.9341 30.4471H101.471V25.5089H101.515C102.209 26.4654 103.229 27.0438 104.661 27.0438C107.569 27.0438 109.5 24.6859 109.5 20.9934C109.5 17.5679 107.699 14.9653 104.748 14.9653C103.229 14.9653 102.144 15.6549 101.384 16.6781H101.319V15.299H97.9341V30.4471ZM103.75 24.241C102.231 24.241 101.363 22.9731 101.363 21.1269C101.363 19.2807 102.144 17.8793 103.685 17.8793C105.204 17.8793 105.92 19.1694 105.92 21.1269C105.92 23.0621 105.095 24.241 103.75 24.241Z" fill="white"/>
<path d="M115.267 27.0433C118.175 27.0433 120.323 25.7531 120.323 23.2618C120.323 20.3479 118.023 19.8363 116.07 19.5026C114.66 19.2357 113.401 19.1245 113.401 18.3237C113.401 17.6119 114.074 17.2782 114.942 17.2782C115.918 17.2782 116.591 17.5896 116.721 18.6128H119.976C119.803 16.3662 118.11 14.9648 114.963 14.9648C112.338 14.9648 110.168 16.2105 110.168 18.6128C110.168 21.2821 112.229 21.816 114.16 22.1496C115.636 22.4166 116.982 22.5278 116.982 23.551C116.982 24.285 116.309 24.6854 115.246 24.6854C114.074 24.6854 113.336 24.1293 113.206 22.9949H109.864C109.972 25.5085 112.012 27.0433 115.267 27.0433Z" fill="white"/>
<path d="M125.077 27.0199C126.618 27.0199 127.595 26.3971 128.398 25.2849H128.463V26.6862H131.848V15.2974H128.311V21.6591C128.311 23.016 127.573 23.9502 126.358 23.9502C125.229 23.9502 124.687 23.2607 124.687 22.015V15.2974H121.171V22.7713C121.171 25.3071 122.517 27.0199 125.077 27.0199Z" fill="white"/>
<path d="M133.4 26.6879H136.938V20.3039C136.938 18.947 137.589 17.9905 138.695 17.9905C139.759 17.9905 140.258 18.7023 140.258 19.9257V26.6879H143.795V20.3039C143.795 18.947 144.424 17.9905 145.553 17.9905C146.616 17.9905 147.115 18.7023 147.115 19.9257V26.6879H150.652V19.2806C150.652 16.7226 149.394 14.9653 146.876 14.9653C145.444 14.9653 144.251 15.5882 143.383 16.9673H143.339C142.775 15.7439 141.668 14.9653 140.214 14.9653C138.609 14.9653 137.545 15.7439 136.851 16.9228H136.786V15.299H133.4V26.6879Z" fill="white"/>
<path fill-rule="evenodd" clip-rule="evenodd" d="M7.82169 3.60682C6.52809 4.53399 5.35834 5.63019 4.34289 6.86419C8.4925 6.4693 13.7644 7.11411 19.8851 10.2511C26.4211 13.6008 31.6842 13.7141 35.3471 12.9899C35.0147 11.9584 34.5963 10.9671 34.1007 10.0247C29.9077 10.478 24.5323 9.87794 18.2677 6.66732C14.2896 4.62848 10.7829 3.78861 7.82169 3.60682ZM31.6513 6.45106C28.3401 2.6588 23.5281 0.272217 18.1722 0.272217C16.5993 0.272217 15.0732 0.478072 13.6184 0.864906C15.5888 1.416 17.682 2.22225 19.8851 3.35139C24.4717 5.70207 28.4315 6.45895 31.6513 6.45106ZM36.1302 16.6104C31.7051 17.5061 25.5945 17.3221 18.2677 13.567C11.4179 10.0564 5.96601 10.1006 2.28909 10.9381C2.0993 10.9813 1.91398 11.0267 1.73313 11.074C1.25173 12.1472 0.867461 13.2757 0.591744 14.4476C0.886225 14.3669 1.19053 14.2903 1.50449 14.2187C5.96524 13.2027 12.2679 13.2468 19.8851 17.1508C26.735 20.6614 32.1868 20.6172 35.8638 19.7796C35.9897 19.751 36.1139 19.7213 36.2359 19.6907C36.2493 19.3985 36.256 19.1044 36.256 18.8088C36.256 18.065 36.2133 17.3314 36.1302 16.6104ZM35.6455 23.6026C31.2633 24.3879 25.3307 24.0865 18.2677 20.4667C11.4179 16.956 5.96601 17.0003 2.28909 17.8378C1.47292 18.0237 0.738709 18.2501 0.0910282 18.4891C0.0892623 18.5954 0.0883789 18.702 0.0883789 18.8088C0.0883789 29.0463 8.18477 37.3454 18.1722 37.3454C26.5424 37.3454 33.5844 31.5164 35.6455 23.6026Z" fill="white"/>
</g>
<defs>
<clipPath id="clip0_115_1735">
<rect width="151" height="38" fill="white"/>
</clipPath>
</defs>
</svg>
