<svg width="97" height="24" viewBox="0 0 97 24" fill="none" xmlns="http://www.w3.org/2000/svg">
<g clip-path="url(#clip0_537_5156)">
<path d="M30.1055 16.3457H36.8548V14.2545H32.5043V6.37744H30.1055V16.3457Z" fill="#340E0E"/>
<path d="M40.8406 14.9512C39.8783 14.9512 39.3769 14.0868 39.3769 12.7903C39.3769 11.4937 39.8783 10.6154 40.8406 10.6154C41.8028 10.6154 42.3178 11.4937 42.3178 12.7903C42.3178 14.0868 41.8028 14.9512 40.8406 14.9512ZM40.8541 16.5684C43.0904 16.5684 44.5541 14.9373 44.5541 12.7903C44.5541 10.6433 43.0904 9.01208 40.8541 9.01208C38.6314 9.01208 37.1406 10.6433 37.1406 12.7903C37.1406 14.9373 38.6314 16.5684 40.8541 16.5684Z" fill="#340E0E"/>
<path d="M48.4201 18.8134C49.4502 18.8134 50.3582 18.5764 50.9681 18.0188C51.5238 17.5029 51.8897 16.7222 51.8897 15.6487V9.20766H49.7754V9.97445H49.7483C49.3417 9.37496 48.7183 8.99854 47.7967 8.99854C46.0755 8.99854 44.8828 10.4763 44.8828 12.5676C44.8828 14.7564 46.333 15.9554 47.8916 15.9554C48.7318 15.9554 49.2604 15.6069 49.667 15.1328H49.7212V15.8439C49.7212 16.7082 49.3282 17.2101 48.393 17.2101C47.6612 17.2101 47.2952 16.8895 47.1733 16.5131H45.0319C45.2487 18.0048 46.5092 18.8134 48.4201 18.8134ZM48.4066 14.2685C47.5798 14.2685 47.0377 13.5714 47.0377 12.4979C47.0377 11.4104 47.5798 10.7134 48.4066 10.7134C49.3282 10.7134 49.8161 11.522 49.8161 12.4839C49.8161 13.4877 49.3688 14.2685 48.4066 14.2685Z" fill="#340E0E"/>
<path d="M56.2507 14.9512C55.2885 14.9512 54.787 14.0868 54.787 12.7903C54.787 11.4937 55.2885 10.6154 56.2507 10.6154C57.213 10.6154 57.728 11.4937 57.728 12.7903C57.728 14.0868 57.213 14.9512 56.2507 14.9512ZM56.2643 16.5684C58.5005 16.5684 59.9642 14.9373 59.9642 12.7903C59.9642 10.6433 58.5005 9.01208 56.2643 9.01208C54.0416 9.01208 52.5508 10.6433 52.5508 12.7903C52.5508 14.9373 54.0416 16.5684 56.2643 16.5684Z" fill="#340E0E"/>
<path d="M60.6211 16.3457H62.8302V9.20759H60.6211V16.3457ZM60.6211 8.21773H62.8302V6.37744H60.6211V8.21773Z" fill="#340E0E"/>
<path d="M63.7773 18.7019H65.9865V15.6069H66.0136C66.4473 16.2063 67.0843 16.5688 67.9788 16.5688C69.7948 16.5688 71.0011 15.091 71.0011 12.7767C71.0011 10.6297 69.8762 8.99854 68.033 8.99854C67.0843 8.99854 66.4066 9.43072 65.9323 10.072H65.8916V9.20766H63.7773V18.7019ZM67.4095 14.8122C66.4608 14.8122 65.9187 14.0175 65.9187 12.8604C65.9187 11.7032 66.4066 10.8249 67.3689 10.8249C68.3176 10.8249 68.7648 11.6335 68.7648 12.8604C68.7648 14.0733 68.2498 14.8122 67.4095 14.8122Z" fill="#340E0E"/>
<path d="M74.5934 16.5686C76.4095 16.5686 77.7513 15.76 77.7513 14.1985C77.7513 12.3722 76.3147 12.0515 75.0949 11.8424C74.2139 11.6751 73.4279 11.6054 73.4279 11.1035C73.4279 10.6573 73.848 10.4482 74.3901 10.4482C75 10.4482 75.4202 10.6434 75.5015 11.2847H77.5344C77.426 9.87661 76.3689 8.99829 74.4037 8.99829C72.7638 8.99829 71.4085 9.77902 71.4085 11.2847C71.4085 12.9577 72.696 13.2923 73.9022 13.5014C74.8238 13.6687 75.6641 13.7384 75.6641 14.3798C75.6641 14.8398 75.244 15.0908 74.5799 15.0908C73.848 15.0908 73.3872 14.7422 73.3059 14.0312H71.2188C71.2865 15.6066 72.5605 16.5686 74.5934 16.5686Z" fill="#340E0E"/>
<path d="M80.752 16.5549C81.7143 16.5549 82.3242 16.1645 82.8256 15.4674H82.8663V16.3457H84.9805V9.20764H82.7714V13.1949C82.7714 14.0454 82.3106 14.6309 81.5517 14.6309C80.8469 14.6309 80.5081 14.1987 80.5081 13.418V9.20764H78.3125V13.892C78.3125 15.4814 79.1528 16.5549 80.752 16.5549Z" fill="#340E0E"/>
<path d="M85.9414 16.3455H88.1505V12.3443C88.1505 11.4938 88.5571 10.8943 89.2483 10.8943C89.9124 10.8943 90.2241 11.3405 90.2241 12.1073V16.3455H92.4333V12.3443C92.4333 11.4938 92.8263 10.8943 93.5311 10.8943C94.1952 10.8943 94.5069 11.3405 94.5069 12.1073V16.3455H96.716V11.703C96.716 10.0997 95.9299 8.99829 94.3578 8.99829C93.4633 8.99829 92.7179 9.38866 92.1758 10.253H92.1487C91.7963 9.48625 91.1051 8.99829 90.197 8.99829C89.1941 8.99829 88.53 9.48625 88.0963 10.2252H88.0557V9.20742H85.9414V16.3455Z" fill="#340E0E"/>
<path fill-rule="evenodd" clip-rule="evenodd" d="M12.4816 23.3163C18.7192 23.3163 23.7758 18.1148 23.7758 11.6983C23.7758 5.28188 18.7192 0.0803223 12.4816 0.0803223C6.24404 0.0803223 1.1875 5.28188 1.1875 11.6983C1.1875 18.1148 6.24404 23.3163 12.4816 23.3163ZM16.005 5.49248C16.1765 4.86581 15.5853 4.49524 15.0454 4.89093L7.50832 10.4143C6.92278 10.8434 7.01488 11.6983 7.64667 11.6983H9.63139V11.6825H13.4995L10.3477 12.8265L8.95826 17.9042C8.78676 18.5309 9.37789 18.9014 9.91787 18.5057L17.4549 12.9824C18.0405 12.5533 17.9483 11.6983 17.3166 11.6983H14.3068L16.005 5.49248Z" fill="#F15757"/>
</g>
<defs>
<clipPath id="clip0_537_5156">
<rect width="96" height="23.8169" fill="white" transform="translate(0.804688)"/>
</clipPath>
</defs>
</svg>
